<svg width="280" height="225" viewBox="0 0 280 225" fill="none" xmlns="http://www.w3.org/2000/svg">
<g filter="url(#filter0_b_93_189)">
<circle cx="139.5" cy="112.5" r="112.5" fill="#A59BE0" fill-opacity="0.02"/>
<circle cx="139.5" cy="112.5" r="112" stroke="url(#paint0_linear_93_189)"/>
</g>
<g filter="url(#filter1_b_93_189)">
<circle cx="139.5" cy="112.5" r="107.5" fill="url(#paint1_linear_93_189)"/>
<circle cx="139.5" cy="112.5" r="107" stroke="url(#paint2_linear_93_189)"/>
</g>
<g filter="url(#filter2_f_93_189)">
<path d="M217 46.4998C166.137 -11.2646 91.5 13.4999 69.5 38.9997C17.231 90.8785 44.2011 142.774 60.5 122.5C76.799 102.225 200.206 158.51 225.5 129C252.5 97.4998 229 60.1281 217 46.4998Z" fill="url(#paint3_linear_93_189)"/>
</g>
<g filter="url(#filter3_f_93_189)">
<path d="M62.9642 180.25C113.827 238.014 187.234 210.211 210.464 187.75C262.733 135.871 235.763 83.9756 219.464 104.25C203.165 124.525 79.7585 68.2401 54.4642 97.75C27.4642 129.25 50.9642 166.622 62.9642 180.25Z" fill="url(#paint4_linear_93_189)"/>
</g>
<ellipse cx="163.482" cy="39.9909" rx="40.5" ry="16" transform="rotate(18.4431 163.482 39.9909)" fill="url(#paint5_linear_93_189)"/>
<path d="M58.4089 104.336H61.8889V118.64H70.1929V122H58.4089V104.336ZM73.2319 111.512H76.5919V122H73.2319V111.512ZM73.1599 107.792C73.1599 107.296 73.3519 106.888 73.7359 106.568C74.1359 106.248 74.5599 106.088 75.0079 106.088C75.4559 106.088 75.8639 106.248 76.2319 106.568C76.6159 106.888 76.8079 107.296 76.8079 107.792C76.8079 108.288 76.6159 108.696 76.2319 109.016C75.8639 109.32 75.4559 109.472 75.0079 109.472C74.5599 109.472 74.1359 109.32 73.7359 109.016C73.3519 108.696 73.1599 108.288 73.1599 107.792ZM88.9562 121.064C88.4922 121.432 87.9082 121.728 87.2042 121.952C86.5162 122.176 85.8362 122.288 85.1642 122.288C83.9642 122.288 82.9162 122.072 82.0202 121.64C81.1402 121.192 80.4522 120.56 79.9562 119.744C79.4762 118.912 79.2362 117.912 79.2362 116.744C79.2362 115.576 79.5002 114.584 80.0282 113.768C80.5562 112.936 81.2442 112.304 82.0922 111.872C82.9562 111.44 83.8602 111.224 84.8042 111.224C85.7482 111.224 86.5642 111.352 87.2522 111.608C87.9562 111.864 88.5562 112.2 89.0522 112.616L87.4202 114.776C87.1962 114.6 86.8842 114.424 86.4842 114.248C86.1002 114.056 85.6442 113.96 85.1162 113.96C84.6522 113.96 84.2282 114.08 83.8442 114.32C83.4602 114.56 83.1562 114.888 82.9322 115.304C82.7082 115.72 82.5962 116.2 82.5962 116.744C82.5962 117.256 82.7162 117.728 82.9562 118.16C83.1962 118.592 83.5242 118.936 83.9402 119.192C84.3722 119.432 84.8762 119.552 85.4522 119.552C85.8202 119.552 86.1562 119.504 86.4602 119.408C86.7802 119.296 87.0522 119.144 87.2762 118.952L88.9562 121.064ZM91.5366 122V103.064H94.8246V113.624L94.8006 113.216C95.1686 112.56 95.6886 112.032 96.3606 111.632C97.0326 111.216 97.8566 111.008 98.8326 111.008C99.8246 111.008 100.649 111.304 101.305 111.896C101.977 112.472 102.321 113.224 102.337 114.152V122H98.9766V115.4C98.9606 114.936 98.8326 114.568 98.5926 114.296C98.3686 114.008 97.9846 113.864 97.4406 113.864C96.9286 113.864 96.4806 114.032 96.0966 114.368C95.7126 114.704 95.4166 115.16 95.2086 115.736C95.0006 116.312 94.8966 116.976 94.8966 117.728V122H91.5366ZM106.771 106.904H110.131V111.464H112.675V114.08H110.131V122H106.771V114.08H105.139V111.464H106.771V106.904ZM115.928 127.064L113.984 124.976C114.464 124.624 114.832 124.192 115.088 123.68C115.36 123.168 115.496 122.544 115.496 121.808V111.512H118.856V122C118.856 123.248 118.632 124.28 118.184 125.096C117.736 125.928 116.984 126.584 115.928 127.064ZM115.376 107.792C115.376 107.296 115.568 106.888 115.952 106.568C116.352 106.248 116.776 106.088 117.224 106.088C117.672 106.088 118.08 106.248 118.448 106.568C118.832 106.888 119.024 107.296 119.024 107.792C119.024 108.288 118.832 108.696 118.448 109.016C118.08 109.32 117.672 109.472 117.224 109.472C116.776 109.472 116.352 109.32 115.952 109.016C115.568 108.696 115.376 108.288 115.376 107.792ZM127.47 122.288C126.19 122.288 125.102 122.048 124.206 121.568C123.326 121.088 122.654 120.424 122.19 119.576C121.726 118.728 121.494 117.752 121.494 116.648C121.494 115.592 121.766 114.64 122.31 113.792C122.854 112.944 123.582 112.272 124.494 111.776C125.406 111.264 126.422 111.008 127.542 111.008C129.046 111.008 130.278 111.448 131.238 112.328C132.214 113.192 132.846 114.448 133.134 116.096L124.974 118.688L124.23 116.864L130.134 114.872L129.438 115.184C129.31 114.768 129.078 114.408 128.742 114.104C128.422 113.784 127.934 113.624 127.278 113.624C126.782 113.624 126.342 113.744 125.958 113.984C125.59 114.208 125.302 114.536 125.094 114.968C124.902 115.384 124.806 115.88 124.806 116.456C124.806 117.112 124.926 117.664 125.166 118.112C125.406 118.544 125.734 118.872 126.15 119.096C126.566 119.32 127.03 119.432 127.542 119.432C127.91 119.432 128.262 119.368 128.598 119.24C128.95 119.112 129.294 118.944 129.63 118.736L131.118 121.232C130.558 121.552 129.95 121.808 129.294 122C128.654 122.192 128.046 122.288 127.47 122.288ZM146.788 122.216C145.924 122.216 145.116 122.064 144.364 121.76C143.628 121.456 143.004 121.032 142.492 120.488L143.884 118.64C144.396 119.104 144.868 119.44 145.3 119.648C145.748 119.84 146.148 119.936 146.5 119.936C146.772 119.936 147.012 119.912 147.22 119.864C147.444 119.8 147.62 119.712 147.748 119.6C147.876 119.472 147.94 119.312 147.94 119.12C147.94 118.848 147.828 118.632 147.604 118.472C147.396 118.312 147.124 118.184 146.788 118.088C146.452 117.976 146.092 117.864 145.708 117.752C144.748 117.448 144.052 117.008 143.62 116.432C143.204 115.84 142.996 115.2 142.996 114.512C142.996 113.984 143.132 113.456 143.404 112.928C143.692 112.384 144.14 111.936 144.748 111.584C145.372 111.216 146.172 111.032 147.148 111.032C148.028 111.032 148.772 111.12 149.38 111.296C149.988 111.472 150.564 111.76 151.108 112.16L149.836 114.128C149.532 113.888 149.188 113.688 148.804 113.528C148.436 113.352 148.092 113.256 147.772 113.24C147.484 113.224 147.236 113.256 147.028 113.336C146.836 113.416 146.684 113.52 146.572 113.648C146.46 113.776 146.404 113.912 146.404 114.056C146.388 114.36 146.5 114.6 146.74 114.776C146.996 114.952 147.316 115.088 147.7 115.184C148.084 115.28 148.46 115.392 148.828 115.52C149.34 115.68 149.78 115.896 150.148 116.168C150.516 116.44 150.796 116.768 150.988 117.152C151.196 117.52 151.3 117.968 151.3 118.496C151.3 119.136 151.132 119.744 150.796 120.32C150.476 120.88 149.98 121.336 149.308 121.688C148.652 122.04 147.812 122.216 146.788 122.216ZM155.099 106.904H158.459V111.464H161.003V114.08H158.459V122H155.099V114.08H153.467V111.464H155.099V106.904ZM166.944 122.504C166 122.504 165.208 122.216 164.568 121.64C163.928 121.048 163.592 120.288 163.56 119.36V111.512H166.92V118.112C166.952 118.576 167.072 118.952 167.28 119.24C167.488 119.512 167.84 119.648 168.336 119.648C168.832 119.648 169.256 119.48 169.608 119.144C169.976 118.808 170.256 118.352 170.448 117.776C170.656 117.184 170.76 116.52 170.76 115.784V111.512H174.12V122H171.072L170.808 120.08L170.856 120.296C170.616 120.728 170.312 121.112 169.944 121.448C169.576 121.784 169.136 122.04 168.624 122.216C168.128 122.408 167.568 122.504 166.944 122.504ZM180.6 111.512L180.912 114.392L180.84 113.96C181.144 113.336 181.56 112.808 182.088 112.376C182.616 111.928 183.136 111.584 183.648 111.344C184.176 111.104 184.576 110.984 184.848 110.984L184.68 114.344C183.896 114.248 183.224 114.376 182.664 114.728C182.104 115.08 181.672 115.544 181.368 116.12C181.064 116.696 180.912 117.288 180.912 117.896V122H177.576V111.512H180.6ZM192.111 122.288C190.831 122.288 189.743 122.048 188.847 121.568C187.967 121.088 187.295 120.424 186.831 119.576C186.367 118.728 186.135 117.752 186.135 116.648C186.135 115.592 186.407 114.64 186.951 113.792C187.495 112.944 188.223 112.272 189.135 111.776C190.047 111.264 191.063 111.008 192.183 111.008C193.687 111.008 194.919 111.448 195.879 112.328C196.855 113.192 197.487 114.448 197.775 116.096L189.615 118.688L188.871 116.864L194.775 114.872L194.079 115.184C193.951 114.768 193.719 114.408 193.383 114.104C193.063 113.784 192.575 113.624 191.919 113.624C191.423 113.624 190.983 113.744 190.599 113.984C190.231 114.208 189.943 114.536 189.735 114.968C189.543 115.384 189.447 115.88 189.447 116.456C189.447 117.112 189.567 117.664 189.807 118.112C190.047 118.544 190.375 118.872 190.791 119.096C191.207 119.32 191.671 119.432 192.183 119.432C192.551 119.432 192.903 119.368 193.239 119.24C193.591 119.112 193.935 118.944 194.271 118.736L195.759 121.232C195.199 121.552 194.591 121.808 193.935 122C193.295 122.192 192.687 122.288 192.111 122.288ZM203.264 111.512L203.528 113.384L203.48 113.216C203.848 112.56 204.368 112.032 205.04 111.632C205.712 111.216 206.536 111.008 207.512 111.008C208.504 111.008 209.328 111.304 209.984 111.896C210.656 112.472 211 113.224 211.016 114.152V122H207.656V115.4C207.64 114.936 207.512 114.568 207.272 114.296C207.048 114.008 206.664 113.864 206.12 113.864C205.608 113.864 205.16 114.032 204.776 114.368C204.392 114.704 204.096 115.16 203.888 115.736C203.68 116.312 203.576 116.976 203.576 117.728V122H200.216V111.512H203.264ZM216.146 117.272V116C216.146 115.2 216.242 114.536 216.434 114.008C216.642 113.464 216.898 113 217.202 112.616C217.522 112.232 217.842 111.888 218.162 111.584C218.594 111.184 218.978 110.792 219.314 110.408C219.65 110.008 219.818 109.488 219.818 108.848C219.818 108.496 219.73 108.2 219.554 107.96C219.378 107.72 219.162 107.536 218.906 107.408C218.666 107.264 218.426 107.192 218.186 107.192C217.722 107.192 217.33 107.304 217.01 107.528C216.706 107.736 216.45 108.008 216.242 108.344C216.05 108.68 215.882 109.032 215.738 109.4L212.978 108.104C213.074 107.816 213.242 107.448 213.482 107C213.722 106.552 214.058 106.104 214.49 105.656C214.938 105.208 215.49 104.832 216.146 104.528C216.818 104.224 217.618 104.072 218.546 104.072C219.458 104.072 220.274 104.232 220.994 104.552C221.73 104.856 222.314 105.336 222.746 105.992C223.178 106.632 223.394 107.48 223.394 108.536C223.394 109.416 223.274 110.128 223.034 110.672C222.794 111.216 222.498 111.68 222.146 112.064C221.794 112.432 221.442 112.8 221.09 113.168C220.818 113.44 220.554 113.744 220.298 114.08C220.058 114.4 219.866 114.776 219.722 115.208C219.578 115.64 219.506 116.16 219.506 116.768V117.272H216.146ZM217.826 122.336C217.25 122.336 216.778 122.184 216.41 121.88C216.042 121.56 215.858 121.144 215.858 120.632C215.858 120.136 216.042 119.72 216.41 119.384C216.794 119.048 217.266 118.88 217.826 118.88C218.386 118.88 218.842 119.048 219.194 119.384C219.562 119.72 219.746 120.136 219.746 120.632C219.746 121.144 219.57 121.56 219.218 121.88C218.866 122.184 218.402 122.336 217.826 122.336Z" fill="#111315"/>
<defs>
<filter id="filter0_b_93_189" x="7" y="-20" width="265" height="265" filterUnits="userSpaceOnUse" color-interpolation-filters="sRGB">
<feFlood flood-opacity="0" result="BackgroundImageFix"/>
<feGaussianBlur in="BackgroundImageFix" stdDeviation="10"/>
<feComposite in2="SourceAlpha" operator="in" result="effect1_backgroundBlur_93_189"/>
<feBlend mode="normal" in="SourceGraphic" in2="effect1_backgroundBlur_93_189" result="shape"/>
</filter>
<filter id="filter1_b_93_189" x="12" y="-15" width="255" height="255" filterUnits="userSpaceOnUse" color-interpolation-filters="sRGB">
<feFlood flood-opacity="0" result="BackgroundImageFix"/>
<feGaussianBlur in="BackgroundImageFix" stdDeviation="10"/>
<feComposite in2="SourceAlpha" operator="in" result="effect1_backgroundBlur_93_189"/>
<feBlend mode="normal" in="SourceGraphic" in2="effect1_backgroundBlur_93_189" result="shape"/>
</filter>
<filter id="filter2_f_93_189" x="36.868" y="9.20068" width="203.096" height="130.549" filterUnits="userSpaceOnUse" color-interpolation-filters="sRGB">
<feFlood flood-opacity="0" result="BackgroundImageFix"/>
<feBlend mode="normal" in="SourceGraphic" in2="BackgroundImageFix" result="shape"/>
<feGaussianBlur stdDeviation="1" result="effect1_foregroundBlur_93_189"/>
</filter>
<filter id="filter3_f_93_189" x="38" y="85" width="207.096" height="133.545" filterUnits="userSpaceOnUse" color-interpolation-filters="sRGB">
<feFlood flood-opacity="0" result="BackgroundImageFix"/>
<feBlend mode="normal" in="SourceGraphic" in2="BackgroundImageFix" result="shape"/>
<feGaussianBlur stdDeviation="2" result="effect1_foregroundBlur_93_189"/>
</filter>
<linearGradient id="paint0_linear_93_189" x1="139.5" y1="0" x2="139.5" y2="225" gradientUnits="userSpaceOnUse">
<stop stop-color="#3980EB" stop-opacity="0.88"/>
<stop offset="1" stop-color="#B163FF" stop-opacity="0.28"/>
</linearGradient>
<linearGradient id="paint1_linear_93_189" x1="32" y1="5" x2="265.606" y2="19.071" gradientUnits="userSpaceOnUse">
<stop stop-color="#62A7F7"/>
<stop offset="1" stop-color="#ECC9F5"/>
</linearGradient>
<linearGradient id="paint2_linear_93_189" x1="139.5" y1="5" x2="139.5" y2="220" gradientUnits="userSpaceOnUse">
<stop stop-color="#3980EB" stop-opacity="0.88"/>
<stop offset="1" stop-color="#B163FF" stop-opacity="0.28"/>
</linearGradient>
<linearGradient id="paint3_linear_93_189" x1="133.5" y1="18.9999" x2="149.854" y2="188.125" gradientUnits="userSpaceOnUse">
<stop stop-color="#F5EFEF"/>
<stop offset="0.59375" stop-color="#D9D9D9" stop-opacity="0"/>
</linearGradient>
<linearGradient id="paint4_linear_93_189" x1="174.5" y1="199.5" x2="155.21" y2="125.706" gradientUnits="userSpaceOnUse">
<stop stop-color="#816BD9" stop-opacity="0.77"/>
<stop offset="1" stop-color="#B8ACFF" stop-opacity="0"/>
</linearGradient>
<linearGradient id="paint5_linear_93_189" x1="163.482" y1="23.9909" x2="167.982" y2="55.9909" gradientUnits="userSpaceOnUse">
<stop stop-color="#F9F8F9"/>
<stop offset="0.604167" stop-color="#F5F2F5" stop-opacity="0"/>
</linearGradient>
</defs>
</svg>
